<mxfile host="Electron" modified="2024-08-16T01:20:40.177Z" agent="Mozilla/5.0 (X11; Linux x86_64) AppleWebKit/537.36 (KHTML, like Gecko) draw.io/24.4.13 Chrome/124.0.6367.207 Electron/30.0.6 Safari/537.36" etag="Cc9m-mGChT4aJegGZ3Jb" version="24.4.13" type="device">
  <diagram name="Page-1" id="n1AvWgUTWabVdx4J3Bqi">
    <mxGraphModel dx="1420" dy="840" grid="1" gridSize="10" guides="1" tooltips="1" connect="1" arrows="1" fold="1" page="0" pageScale="1" pageWidth="850" pageHeight="1100" math="0" shadow="0">
      <root>
        <mxCell id="0" />
        <mxCell id="1" parent="0" />
        <mxCell id="6vLpbRzvEjJlJkhfxgd6-25" style="edgeStyle=none;rounded=0;orthogonalLoop=1;jettySize=auto;html=1;endArrow=none;endFill=0;" parent="1" source="6vLpbRzvEjJlJkhfxgd6-18" target="6vLpbRzvEjJlJkhfxgd6-21" edge="1">
          <mxGeometry relative="1" as="geometry" />
        </mxCell>
        <mxCell id="6vLpbRzvEjJlJkhfxgd6-26" style="edgeStyle=none;rounded=0;orthogonalLoop=1;jettySize=auto;html=1;entryX=0.5;entryY=0;entryDx=0;entryDy=0;strokeColor=default;align=center;verticalAlign=middle;fontFamily=Helvetica;fontSize=11;fontColor=default;labelBackgroundColor=default;endArrow=none;endFill=0;" parent="1" source="6vLpbRzvEjJlJkhfxgd6-18" target="6vLpbRzvEjJlJkhfxgd6-20" edge="1">
          <mxGeometry relative="1" as="geometry" />
        </mxCell>
        <mxCell id="6vLpbRzvEjJlJkhfxgd6-37" value="" style="edgeStyle=none;rounded=0;orthogonalLoop=1;jettySize=auto;html=1;strokeColor=default;align=center;verticalAlign=middle;fontFamily=Helvetica;fontSize=11;fontColor=default;labelBackgroundColor=default;endArrow=none;endFill=0;" parent="1" source="6vLpbRzvEjJlJkhfxgd6-18" target="6vLpbRzvEjJlJkhfxgd6-36" edge="1">
          <mxGeometry relative="1" as="geometry" />
        </mxCell>
        <mxCell id="6vLpbRzvEjJlJkhfxgd6-44" style="edgeStyle=none;rounded=0;orthogonalLoop=1;jettySize=auto;html=1;exitX=0;exitY=0.5;exitDx=0;exitDy=0;strokeColor=default;align=center;verticalAlign=middle;fontFamily=Helvetica;fontSize=11;fontColor=default;labelBackgroundColor=default;endArrow=none;endFill=0;" parent="1" source="6vLpbRzvEjJlJkhfxgd6-18" target="6vLpbRzvEjJlJkhfxgd6-42" edge="1">
          <mxGeometry relative="1" as="geometry" />
        </mxCell>
        <mxCell id="6vLpbRzvEjJlJkhfxgd6-18" value="Entry" style="whiteSpace=wrap;html=1;align=center;fillColor=#dae8fc;strokeColor=#6c8ebf;" parent="1" vertex="1">
          <mxGeometry x="450" y="350" width="100" height="40" as="geometry" />
        </mxCell>
        <mxCell id="6vLpbRzvEjJlJkhfxgd6-29" style="edgeStyle=none;rounded=0;orthogonalLoop=1;jettySize=auto;html=1;strokeColor=default;align=center;verticalAlign=middle;fontFamily=Helvetica;fontSize=11;fontColor=default;labelBackgroundColor=default;endArrow=none;endFill=0;" parent="1" source="6vLpbRzvEjJlJkhfxgd6-19" target="6vLpbRzvEjJlJkhfxgd6-18" edge="1">
          <mxGeometry relative="1" as="geometry" />
        </mxCell>
        <mxCell id="6vLpbRzvEjJlJkhfxgd6-19" value="&lt;u&gt;ID&lt;/u&gt;" style="ellipse;whiteSpace=wrap;html=1;align=center;fillColor=#ffe6cc;strokeColor=#d79b00;" parent="1" vertex="1">
          <mxGeometry x="340" y="280" width="100" height="40" as="geometry" />
        </mxCell>
        <mxCell id="6vLpbRzvEjJlJkhfxgd6-20" value="Title" style="ellipse;whiteSpace=wrap;html=1;align=center;fillColor=#ffe6cc;strokeColor=#d79b00;" parent="1" vertex="1">
          <mxGeometry x="390" y="230" width="100" height="40" as="geometry" />
        </mxCell>
        <mxCell id="6vLpbRzvEjJlJkhfxgd6-21" value="Description" style="ellipse;whiteSpace=wrap;html=1;align=center;fillColor=#ffe6cc;strokeColor=#d79b00;" parent="1" vertex="1">
          <mxGeometry x="510" y="230" width="100" height="40" as="geometry" />
        </mxCell>
        <mxCell id="6vLpbRzvEjJlJkhfxgd6-27" style="edgeStyle=none;rounded=0;orthogonalLoop=1;jettySize=auto;html=1;strokeColor=default;align=center;verticalAlign=middle;fontFamily=Helvetica;fontSize=11;fontColor=default;labelBackgroundColor=default;endArrow=none;endFill=0;" parent="1" source="6vLpbRzvEjJlJkhfxgd6-22" target="6vLpbRzvEjJlJkhfxgd6-18" edge="1">
          <mxGeometry relative="1" as="geometry" />
        </mxCell>
        <mxCell id="6vLpbRzvEjJlJkhfxgd6-22" value="CreatedOn" style="ellipse;whiteSpace=wrap;html=1;align=center;fillColor=#ffe6cc;strokeColor=#d79b00;" parent="1" vertex="1">
          <mxGeometry x="560" y="280" width="100" height="40" as="geometry" />
        </mxCell>
        <mxCell id="6vLpbRzvEjJlJkhfxgd6-30" style="edgeStyle=none;rounded=0;orthogonalLoop=1;jettySize=auto;html=1;exitX=0.5;exitY=0;exitDx=0;exitDy=0;strokeColor=default;align=center;verticalAlign=middle;fontFamily=Helvetica;fontSize=11;fontColor=default;labelBackgroundColor=default;endArrow=none;endFill=0;" parent="1" source="6vLpbRzvEjJlJkhfxgd6-20" target="6vLpbRzvEjJlJkhfxgd6-20" edge="1">
          <mxGeometry relative="1" as="geometry" />
        </mxCell>
        <mxCell id="6vLpbRzvEjJlJkhfxgd6-33" value="" style="edgeStyle=none;rounded=0;orthogonalLoop=1;jettySize=auto;html=1;strokeColor=default;align=center;verticalAlign=middle;fontFamily=Helvetica;fontSize=11;fontColor=default;labelBackgroundColor=default;endArrow=none;endFill=0;" parent="1" source="6vLpbRzvEjJlJkhfxgd6-31" target="6vLpbRzvEjJlJkhfxgd6-32" edge="1">
          <mxGeometry relative="1" as="geometry" />
        </mxCell>
        <mxCell id="6vLpbRzvEjJlJkhfxgd6-43" style="edgeStyle=none;rounded=0;orthogonalLoop=1;jettySize=auto;html=1;exitX=0;exitY=0.5;exitDx=0;exitDy=0;strokeColor=default;align=center;verticalAlign=middle;fontFamily=Helvetica;fontSize=11;fontColor=default;labelBackgroundColor=default;endArrow=none;endFill=0;" parent="1" source="6vLpbRzvEjJlJkhfxgd6-31" target="6vLpbRzvEjJlJkhfxgd6-39" edge="1">
          <mxGeometry relative="1" as="geometry" />
        </mxCell>
        <mxCell id="6vLpbRzvEjJlJkhfxgd6-31" value="Logbook" style="whiteSpace=wrap;html=1;align=center;fillColor=#dae8fc;strokeColor=#6c8ebf;" parent="1" vertex="1">
          <mxGeometry x="450" y="530" width="100" height="40" as="geometry" />
        </mxCell>
        <mxCell id="6vLpbRzvEjJlJkhfxgd6-32" value="&lt;u&gt;ID&lt;/u&gt;" style="ellipse;whiteSpace=wrap;html=1;align=center;fillColor=#ffe6cc;strokeColor=#d79b00;" parent="1" vertex="1">
          <mxGeometry x="390" y="610" width="100" height="40" as="geometry" />
        </mxCell>
        <mxCell id="6vLpbRzvEjJlJkhfxgd6-38" value="" style="edgeStyle=none;rounded=0;orthogonalLoop=1;jettySize=auto;html=1;strokeColor=default;align=center;verticalAlign=middle;fontFamily=Helvetica;fontSize=11;fontColor=default;labelBackgroundColor=default;endArrow=none;endFill=0;" parent="1" source="6vLpbRzvEjJlJkhfxgd6-36" target="6vLpbRzvEjJlJkhfxgd6-31" edge="1">
          <mxGeometry relative="1" as="geometry" />
        </mxCell>
        <mxCell id="6vLpbRzvEjJlJkhfxgd6-36" value="Belongs to" style="shape=rhombus;perimeter=rhombusPerimeter;whiteSpace=wrap;html=1;align=center;fontFamily=Helvetica;fontSize=11;labelBackgroundColor=none;fillColor=#f5f5f5;strokeColor=#666666;fontColor=#333333;" parent="1" vertex="1">
          <mxGeometry x="440" y="430" width="120" height="60" as="geometry" />
        </mxCell>
        <mxCell id="6vLpbRzvEjJlJkhfxgd6-39" value="OwnedBy" style="shape=rhombus;perimeter=rhombusPerimeter;whiteSpace=wrap;html=1;align=center;fontFamily=Helvetica;fontSize=11;labelBackgroundColor=none;fillColor=#f5f5f5;strokeColor=#666666;fontColor=#333333;" parent="1" vertex="1">
          <mxGeometry x="260" y="480" width="120" height="60" as="geometry" />
        </mxCell>
        <mxCell id="6vLpbRzvEjJlJkhfxgd6-41" value="" style="edgeStyle=none;rounded=0;orthogonalLoop=1;jettySize=auto;html=1;strokeColor=default;align=center;verticalAlign=middle;fontFamily=Helvetica;fontSize=11;fontColor=default;labelBackgroundColor=default;endArrow=none;endFill=0;" parent="1" source="6vLpbRzvEjJlJkhfxgd6-40" target="6vLpbRzvEjJlJkhfxgd6-31" edge="1">
          <mxGeometry relative="1" as="geometry" />
        </mxCell>
        <mxCell id="6vLpbRzvEjJlJkhfxgd6-40" value="&lt;span&gt;Title&lt;/span&gt;" style="ellipse;whiteSpace=wrap;html=1;align=center;fontStyle=0;fillColor=#ffe6cc;strokeColor=#d79b00;" parent="1" vertex="1">
          <mxGeometry x="510" y="610" width="100" height="40" as="geometry" />
        </mxCell>
        <mxCell id="6vLpbRzvEjJlJkhfxgd6-42" value="CreatedBy" style="shape=rhombus;perimeter=rhombusPerimeter;whiteSpace=wrap;html=1;align=center;fontFamily=Helvetica;fontSize=11;labelBackgroundColor=none;fillColor=#f5f5f5;strokeColor=#666666;fontColor=#333333;" parent="1" vertex="1">
          <mxGeometry x="260" y="380" width="120" height="60" as="geometry" />
        </mxCell>
        <mxCell id="6vLpbRzvEjJlJkhfxgd6-47" value="" style="edgeStyle=none;rounded=0;orthogonalLoop=1;jettySize=auto;html=1;strokeColor=default;align=center;verticalAlign=middle;fontFamily=Helvetica;fontSize=11;fontColor=default;labelBackgroundColor=default;endArrow=none;endFill=0;" parent="1" source="6vLpbRzvEjJlJkhfxgd6-45" target="6vLpbRzvEjJlJkhfxgd6-46" edge="1">
          <mxGeometry relative="1" as="geometry" />
        </mxCell>
        <mxCell id="6vLpbRzvEjJlJkhfxgd6-48" value="" style="edgeStyle=none;rounded=0;orthogonalLoop=1;jettySize=auto;html=1;strokeColor=default;align=center;verticalAlign=middle;fontFamily=Helvetica;fontSize=11;fontColor=default;labelBackgroundColor=default;endArrow=none;endFill=0;" parent="1" source="6vLpbRzvEjJlJkhfxgd6-45" target="6vLpbRzvEjJlJkhfxgd6-42" edge="1">
          <mxGeometry relative="1" as="geometry" />
        </mxCell>
        <mxCell id="6vLpbRzvEjJlJkhfxgd6-50" value="" style="edgeStyle=none;rounded=0;orthogonalLoop=1;jettySize=auto;html=1;strokeColor=default;align=center;verticalAlign=middle;fontFamily=Helvetica;fontSize=11;fontColor=default;labelBackgroundColor=default;endArrow=none;endFill=0;" parent="1" source="6vLpbRzvEjJlJkhfxgd6-45" target="6vLpbRzvEjJlJkhfxgd6-39" edge="1">
          <mxGeometry relative="1" as="geometry" />
        </mxCell>
        <mxCell id="6vLpbRzvEjJlJkhfxgd6-45" value="User" style="whiteSpace=wrap;html=1;align=center;fillColor=#dae8fc;strokeColor=#6c8ebf;" parent="1" vertex="1">
          <mxGeometry x="120" y="440" width="100" height="40" as="geometry" />
        </mxCell>
        <mxCell id="6vLpbRzvEjJlJkhfxgd6-46" value="&lt;u&gt;ID&lt;/u&gt;" style="ellipse;whiteSpace=wrap;html=1;align=center;fillColor=#ffe6cc;strokeColor=#d79b00;" parent="1" vertex="1">
          <mxGeometry x="120" y="360" width="100" height="40" as="geometry" />
        </mxCell>
      </root>
    </mxGraphModel>
  </diagram>
</mxfile>
